<svg id="low_poly" data-name="low poly" xmlns="http://www.w3.org/2000/svg"  viewBox="0 0 801 756"><title>earth2</title><polygon points="612 693 657 666 657 664.88 612 693" fill="none"/><polygon points="36 540 68.73 585 108 639 72 585 36 540" fill="none"/><polygon points="180 396 144 378 193.5 405 180 396" fill="none" stroke="#ca30ce" stroke-miterlimit="10"/><polygon points="72 261 36 306 90 297 72 261" fill="none" stroke="#ca30ce" stroke-miterlimit="10"/><polygon points="342 126 459 108 423 63 342 126" fill="none" stroke="#ca30ce" stroke-miterlimit="10"/><polygon points="279 441 243 432 261 504 279 441" fill="none" stroke="#ca30ce" stroke-miterlimit="10"/><path d="M54,317l81,27-27-36Z" transform="translate(-18 -11)" fill="none" stroke="#ca30ce" stroke-miterlimit="10"/><polygon points="288 153 342 126 243 117 288 153" fill="none" stroke="#ca30ce" stroke-miterlimit="10"/><polygon points="306 90 243 117 342 126 423 63 306 90" fill="none" stroke="#ca30ce" stroke-miterlimit="10"/><polygon points="396 144 414 216 459 108 351 124.61 342 126 396 144" fill="none" stroke="#ca30ce" stroke-miterlimit="10"/><polygon points="342 63 306 90 423 63 342 63" fill="#2a80bd"/><polygon points="693 225 540 396 666 306 702 288 693 225" fill="#2a80bd"/><polygon points="522 468 630 405 666 306 540 396 522 468" fill="#509995"/><polygon points="180 405 126 495 261 504 180 405" fill="#50b2cc"/><polygon points="603 486 630 405 522 468 603 486" fill="#5ddbd8"/><polygon points="333 423 414 216 324 243 333 423" fill="#6ab2ce"/><polygon points="702 288 666 306 783 297 756 261 702 288" fill="#258999"/><polygon points="720 468 630 405 603 486 720 468" fill="#4b93b7"/><polygon points="459 495 531 522 522 468 459 495" fill="#29aae3"/><polygon points="126 495 315 558 261 504 126 495" fill="#29aae3"/><polygon points="604.93 495 630 612 720 468 603 486 604.93 495" fill="#2a80bd"/><polygon points="522 468 531 522 603 486 522 468" fill="#4dc2e2"/><polygon points="604.93 495 603 486 531 522 657 639 720 468 630 612 604.93 495" fill="#3c99d3"/><polygon points="513 261 414 216 432 387 513 261" fill="#22648c"/><polygon points="432 450 459 495 486 432 432 450" fill="#29aae3"/><polygon points="459 495 522 468 486 432 459 495" fill="#1d6a99"/><polygon points="432 387 432 450 486 432 432 387" fill="#48ddff"/><polygon points="432 387 540 396 513 261 432 387" fill="#4dc2e2"/><polygon points="486 432 522 468 540 396 432 387 486 432" fill="#499ab7"/><polygon points="684 648 738 585 660 663 684 648" fill="#8cc63e"/><polygon points="9 297 0 369 18 243 9 297" fill="#50b2cc"/><polygon points="540 396 558 207 513 261 540 396" fill="#84d3ef"/><polygon points="648 180 558 207 693 225 648 180" fill="#48ddff"/><polygon points="333 423 405 450 432 450 432 387 333 423" fill="#50b2cc"/><polygon points="288 432 333 423 288 378 288 432" fill="#4dc2e2"/><polygon points="171 369 225 387 243 396 261 342 171 369" fill="#38647a"/><polygon points="270 297 261 342 243 396 288 432 288 378 270 297" fill="#4b93b7"/><polygon points="324 243 270 297 288 378 324 243" fill="#3c99d3"/><polygon points="288 378 333 423 324 243 288 378" fill="#1d6a99"/><polygon points="558 207 414 216 513 261 558 207" fill="#2a80bd"/><polygon points="432 387 414 216 333 423 432 387" fill="#2a80bd"/><polygon points="675 99 612 45 648 180 675 99" fill="#61b3db"/><polygon points="234 315 171 369 261 342 234 315" fill="#48ddff"/><polygon points="171 324 171 369 234 315 171 324" fill="#4dc2e2"/><polygon points="117 333 9 477 144 378 117 333" fill="#84d3ef"/><polygon points="0 423 9 477 117 333 0 423" fill="#2a80bd"/><polygon points="54 351 0 423 117 333 54 351" fill="#50b2cc"/><polygon points="9 477 36 540 144 378 9 477" fill="#50b2cc"/><polygon points="144 378 36 540 72 585 144 378" fill="#84d3ef"/><polygon points="72 585 108 639 126 495 72 585" fill="#29aae3"/><polygon points="648 180 612 45 558 207 648 180" fill="#45ffd2"/><polygon points="72 261 18 243 36 306 72 261" fill="#29aae3"/><polygon points="108 639 153 684 171 693 126 495 108 639" fill="#48ddff"/><polygon points="0 369 0 423 54 351 0 369" fill="#258999"/><polygon points="36 306 0 369 54 351 36 306" fill="#48ddff"/><polygon points="18 243 0 369 36 306 18 243" fill="#499ab7"/><polygon points="333 594 315 558 279 738 369 729 333 594" fill="#4b93b7"/><polygon points="432 756 531 738 405 648 432 756" fill="#3c99d3"/><polygon points="468 603 405 648 531 738 504 675 468 603" fill="#2a80bd"/><polygon points="504 675 531 738 612 693 468 603 504 675" fill="#1d6a99"/><polygon points="792 315 774 225 729 153 675 99 774 234 783 297 783 450 738 585 774 495 801 396 792 315" fill="#8cc63e"/><polygon points="126 495 171 693 315 558 126 495" fill="#61b3db"/><polygon points="657 639 531 522 567 612 495 567 567 612 531 522 486 576 468 603 612 693 657 664.88 657 639" fill="#2ca1db"/><polygon points="171 693 207 711 315 558 171 693" fill="#428ebc"/><polygon points="207 711 279 738 315 558 207 711" fill="#2a80bd"/><polygon points="279 738 351 756 369 729 279 738" fill="#4897af"/><polygon points="54 171 18 243 99 189 54 171" fill="#2d8ec9"/><polygon points="369 729 351 756 432 756 405 648 369 729" fill="#2a80bd"/><polygon points="99 189 18 243 72 261 99 189" fill="#499ab7"/><polygon points="378 9 351 0 334 17 378 9" fill="#2a80bd"/><polygon points="334 17 351 0 324 0 332.63 17.25 334 17" fill="#4897af"/><polygon points="324 0 261 18 243 27 279 27 324 0" fill="#3d5e8e"/><polygon points="332.63 17.25 324 0 279 27 332.63 17.25" fill="#2d8ec9"/><polygon points="459 108 612 45 486 27 459 108" fill="#4897af"/><polygon points="459 0 387 0 486 27 459 0" fill="#499ab7"/><polygon points="387 0 351 0 378 9 387 0" fill="#4dc2e2"/><polygon points="486 27 387 0 378 9 486 27" fill="#145772"/><polygon points="612 45 558 27 459 0 486 27 612 45" fill="#147eb2"/><polygon points="414 216 612 45 459 108 414 216" fill="#4dc2e2"/><polygon points="135 90 99 117 54 171 108 126 135 90" fill="#6897a5"/><polygon points="108 126 54 171 99 189 108 126" fill="#57b6e2"/><polygon points="198 63 135 90 108 126 198 63" fill="#1f81a3"/><polygon points="558 207 612 45 414 216 558 207" fill="#499ab7"/><polygon points="243 27 225 36 189 54 135 90 198 63 243 27" fill="#2ca7e4"/><polygon points="279 27 243 27 198 63 279 27" fill="#2a80bd"/><polygon points="334 17 332.63 17.25 333 18 334 17" fill="#29aae3"/><path d="M447.44,461H423.82a4.56,4.56,0,0,1-1.59-.29l-70-26.26a4.65,4.65,0,0,0-2.48-.2l-41.66,8.34a4.54,4.54,0,0,1-3.72-.91l-43-34.38a3.89,3.89,0,0,0-.8-.51l-17.28-8.65a5.36,5.36,0,0,0-.6-.24L192.1,381a4.52,4.52,0,0,1-3.1-4.29V338.93a4.53,4.53,0,0,1,3.89-4.49l56.87-8.12a4.52,4.52,0,0,1,3.84,1.28L273,347a4.53,4.53,0,0,0,7.64-2.32l7.07-35.36A4.59,4.59,0,0,1,289,307l52.22-52.22a4.63,4.63,0,0,1,1.9-1.14l84.77-25.43a4.52,4.52,0,0,0,3.09-5.43l-16.35-65.4a4.52,4.52,0,0,0-3-3.2l-49.86-16.62a4.52,4.52,0,0,0-3.46.25L308.59,162.7a4.53,4.53,0,0,1-4.85-.51L266.9,132.72a4.53,4.53,0,0,1,1-7.7l55.56-23.81a4.11,4.11,0,0,0,.93-.54l34.36-25.76a4.54,4.54,0,0,1,2.72-.91h77.31c1.38,0-16.68,7.93-15.82,9l48.8,29.5a4.53,4.53,0,0,0,7.83-1.39L502.32,43a4.53,4.53,0,0,0-3.55-5.9l-102-17a4.54,4.54,0,0,0-1.56,0l-41.83,7.61A4.51,4.51,0,0,0,351,29h0l-.37-.75-53.1,9.65a4.73,4.73,0,0,0-1,.32l-80.1,35.6a4.37,4.37,0,0,0-.76.43l-88,61.62a4.53,4.53,0,0,0-1.89,3.07l-8.65,60.57a5.09,5.09,0,0,1-.24,1L90.69,270.15a4.56,4.56,0,0,0,.19,3.62l16.94,33.86a4.48,4.48,0,0,0,.42.7l26.62,35.48.26.39,26.2,43.67a4.54,4.54,0,0,0,1.86,1.72l34.57,17.28a3.82,3.82,0,0,1,.48.29l13.1,8.73.35.21,48.81,26.62a4.25,4.25,0,0,0,1.07.42l30.9,7.72a4.53,4.53,0,0,1,3.25,5.64l-16,55.94a4.53,4.53,0,0,0,1.15,4.44l51.6,51.6a4.55,4.55,0,0,1,.85,1.18l17.46,34.93a4.25,4.25,0,0,1,.33.86L383.7,727.61a4.52,4.52,0,0,0,8.51.67l30.29-68.15a4.6,4.6,0,0,1,1.5-1.85l61.32-43.8a4.37,4.37,0,0,0,1.14-1.17l17.41-26.11.28-.39,40.77-48.91a4.53,4.53,0,0,0-1.89-7.14l-64.55-24.21a4.46,4.46,0,0,1-2.29-1.9L451.32,463.2A4.51,4.51,0,0,0,447.44,461Z" transform="translate(-18 -11)" fill="#71913d"/><polygon points="693 225 702 288 756 261 774 234 675 99 648 180 693 225" fill="#8cc63e"/><polygon points="657 666 660 663 657 664.88 657 666" fill="#8cc63e"/><polygon points="783 297 666 306 630 405 720 468 657 639 657 664.88 660 663 738 585 783 450 783 297" fill="#8cc63e"/><path d="M72,362l63-18L54,317Z" transform="translate(-18 -11)" fill="#45ffd2"/><polygon points="261 504 243 432 207 414 193.5 405 144 378 72 585 126 495 180 405 261 504" fill="#2a80bd"/><polygon points="243 432 193.5 405 207 414 243 432" fill="#44abd8"/><polygon points="693 225 558 207 540 396 693 225" fill="#29aae3"/><polygon points="783 297 774 234 756 261 783 297" fill="#8ec144"/><polygon points="340.94 61.02 249.94 114.02 474.94 60.02 340.94 61.02" fill="#2a80bd"/><polygon points="450 171 396 153 414 216 450 171" fill="#29aae3"/><polygon points="281.43 442.39 239.95 421.29 260.1 504.84 281.43 442.39" fill="#4dc2e2"/><polygon points="95.72 290.95 34.32 305.69 118.71 332.59 95.72 290.95" fill="#4dc2e2"/><polygon points="90 300.72 76.64 256.82 36.26 306 90 300.72" fill="#75d9ef"/><polygon points="441 171 396 153 456.75 108 441 171" fill="#29aae3"/><path d="M477,119" transform="translate(-18 -11)" fill="#29aae3"/><polyline points="477 27 486 27 486 36" fill="#29aae3"/><polygon points="459 99 468 99 450 126 459 99" fill="#29aae3"/><polygon points="252 333 261 342 270 333 252 333" fill="#29aae3"/><polygon points="531 531 522 513 531 513 531 531" fill="#4b93b7"/><polygon points="243 117 342 126 288 153 243 117" fill="#499ab7"/><polygon points="414 72 342 126 243 117 414 72" fill="#29aae3"/><polyline points="468 108 405 117 342 126 414 72" fill="#84d3ef"/><line x1="405" y1="117" x2="459" y2="108" fill="#4dc2e2"/><path d="M405,146" transform="translate(-18 -11)" fill="#4dc2e2"/><path d="M485,175" transform="translate(-18 -11)" fill="#4dc2e2"/><polyline points="396 153 342 126 477 108" fill="#4dc2e2"/><path d="M513,128" transform="translate(-18 -11)" fill="#84d3ef"/><polyline points="369 729 360 711 378 711" fill="#1d6a99"/></svg>