<svg id="low_poly" data-name="low poly" xmlns="http://www.w3.org/2000/svg" viewBox="0 0 801 756"><defs><style>.cls-1,.cls-2{fill:none;}.cls-2{stroke:#ca30ce;stroke-miterlimit:10;}.cls-3{fill:#2a80bd;}.cls-4{fill:#509995;}.cls-5{fill:#50b2cc;}.cls-6{fill:#5ddbd8;}.cls-7{fill:#6ab2ce;}.cls-8{fill:#258999;}.cls-9{fill:#4b93b7;}.cls-10{fill:#29aae3;}.cls-11{fill:#4dc2e2;}.cls-12{fill:#3c99d3;}.cls-13{fill:#22648c;}.cls-14{fill:#1d6a99;}.cls-15{fill:#48ddff;}.cls-16{fill:#499ab7;}.cls-17{fill:#8cc63e;}.cls-18{fill:#84d3ef;}.cls-19{fill:#38647a;}.cls-20{fill:#61b3db;}.cls-21{fill:#45ffd2;}.cls-22{fill:#2ca1db;}.cls-23{fill:#428ebc;}.cls-24{fill:#4897af;}.cls-25{fill:#2d8ec9;}.cls-26{fill:#3d5e8e;}.cls-27{fill:#145772;}.cls-28{fill:#147eb2;}.cls-29{fill:#6897a5;}.cls-30{fill:#57b6e2;}.cls-31{fill:#1f81a3;}.cls-32{fill:#2ca7e4;}.cls-33{fill:#71913d;}.cls-34{fill:#44abd8;}.cls-35{fill:#8ec144;}.cls-36{fill:#75d9ef;}</style></defs><title>earthFinal</title><polygon class="cls-1" points="612 693 657 666 657 664.88 612 693"/><polygon class="cls-1" points="36 540 68.73 585 108 639 72 585 36 540"/><polygon class="cls-2" points="180 396 144 378 193.5 405 180 396"/><polygon class="cls-2" points="72 261 36 306 90 297 72 261"/><polygon class="cls-2" points="342 126 459 108 423 63 342 126"/><polygon class="cls-2" points="279 441 243 432 261 504 279 441"/><path class="cls-2" d="M270,385l81,27-27-36Z" transform="translate(-234 -79)"/><polygon class="cls-2" points="288 153 342 126 243 117 288 153"/><polygon class="cls-2" points="306 90 243 117 342 126 423 63 306 90"/><polygon class="cls-2" points="396 144 414 216 459 108 351 124.61 342 126 396 144"/><polygon class="cls-3" points="342 63 306 90 423 63 342 63"/><polygon class="cls-3" points="693 225 540 396 666 306 702 288 693 225"/><polygon class="cls-4" points="522 468 630 405 666 306 540 396 522 468"/><polygon class="cls-5" points="180 405 126 495 261 504 180 405"/><polygon class="cls-6" points="603 486 630 405 522 468 603 486"/><polygon class="cls-7" points="333 423 414 216 324 243 333 423"/><polygon class="cls-8" points="702 288 666 306 783 297 756 261 702 288"/><polygon class="cls-9" points="720 468 630 405 603 486 720 468"/><polygon class="cls-10" points="459 495 531 522 522 468 459 495"/><polygon class="cls-10" points="126 495 315 558 261 504 126 495"/><polygon class="cls-3" points="604.93 495 630 612 720 468 603 486 604.93 495"/><polygon class="cls-11" points="522 468 531 522 603 486 522 468"/><polygon class="cls-12" points="604.93 495 603 486 531 522 657 639 720 468 630 612 604.93 495"/><polygon class="cls-13" points="513 261 414 216 432 387 513 261"/><polygon class="cls-10" points="432 450 459 495 486 432 432 450"/><polygon class="cls-14" points="459 495 522 468 486 432 459 495"/><polygon class="cls-15" points="432 387 432 450 486 432 432 387"/><polygon class="cls-11" points="432 387 540 396 513 261 432 387"/><polygon class="cls-16" points="486 432 522 468 540 396 432 387 486 432"/><polygon class="cls-17" points="684 648 738 585 660 663 684 648"/><polygon class="cls-5" points="9 297 0 369 18 243 9 297"/><polygon class="cls-18" points="540 396 558 207 513 261 540 396"/><polygon class="cls-15" points="648 180 558 207 693 225 648 180"/><polygon class="cls-5" points="333 423 405 450 432 450 432 387 333 423"/><polygon class="cls-11" points="288 432 333 423 288 378 288 432"/><polygon class="cls-19" points="171 369 225 387 243 396 261 342 171 369"/><polygon class="cls-9" points="270 297 261 342 243 396 288 432 288 378 270 297"/><polygon class="cls-12" points="324 243 270 297 288 378 324 243"/><polygon class="cls-14" points="288 378 333 423 324 243 288 378"/><polygon class="cls-3" points="558 207 414 216 513 261 558 207"/><polygon class="cls-3" points="432 387 414 216 333 423 432 387"/><polygon class="cls-20" points="675 99 612 45 648 180 675 99"/><polygon class="cls-15" points="234 315 171 369 261 342 234 315"/><polygon class="cls-11" points="171 324 171 369 234 315 171 324"/><polygon class="cls-18" points="117 333 9 477 144 378 117 333"/><polygon class="cls-3" points="0 423 9 477 117 333 0 423"/><polygon class="cls-5" points="54 351 0 423 117 333 54 351"/><polygon class="cls-5" points="9 477 36 540 144 378 9 477"/><polygon class="cls-18" points="144 378 36 540 72 585 144 378"/><polygon class="cls-10" points="72 585 108 639 126 495 72 585"/><polygon class="cls-21" points="648 180 612 45 558 207 648 180"/><polygon class="cls-10" points="72 261 18 243 36 306 72 261"/><polygon class="cls-15" points="108 639 153 684 171 693 126 495 108 639"/><polygon class="cls-8" points="0 369 0 423 54 351 0 369"/><polygon class="cls-15" points="36 306 0 369 54 351 36 306"/><polygon class="cls-16" points="18 243 0 369 36 306 18 243"/><polygon class="cls-9" points="333 594 315 558 279 738 369 729 333 594"/><polygon class="cls-12" points="432 756 531 738 405 648 432 756"/><polygon class="cls-3" points="468 603 405 648 531 738 504 675 468 603"/><polygon class="cls-14" points="504 675 531 738 612 693 468 603 504 675"/><polygon class="cls-17" points="792 315 774 225 729 153 675 99 774 234 783 297 783 450 738 585 774 495 801 396 792 315"/><polygon class="cls-20" points="126 495 171 693 315 558 126 495"/><polygon class="cls-22" points="657 639 531 522 567 612 495 567 567 612 531 522 486 576 468 603 612 693 657 664.88 657 639"/><polygon class="cls-23" points="171 693 207 711 315 558 171 693"/><polygon class="cls-3" points="207 711 279 738 315 558 207 711"/><polygon class="cls-24" points="279 738 351 756 369 729 279 738"/><polygon class="cls-25" points="54 171 18 243 99 189 54 171"/><polygon class="cls-3" points="369 729 351 756 432 756 405 648 369 729"/><polygon class="cls-16" points="99 189 18 243 72 261 99 189"/><polygon class="cls-3" points="378 9 351 0 334 17 378 9"/><polygon class="cls-24" points="334 17 351 0 324 0 332.63 17.25 334 17"/><polygon class="cls-26" points="324 0 261 18 243 27 279 27 324 0"/><polygon class="cls-25" points="332.63 17.25 324 0 279 27 332.63 17.25"/><polygon class="cls-24" points="459 108 612 45 486 27 459 108"/><polygon class="cls-16" points="459 0 387 0 486 27 459 0"/><polygon class="cls-11" points="387 0 351 0 378 9 387 0"/><polygon class="cls-27" points="486 27 387 0 378 9 486 27"/><polygon class="cls-28" points="612 45 558 27 459 0 486 27 612 45"/><polygon class="cls-11" points="414 216 612 45 459 108 414 216"/><polygon class="cls-29" points="135 90 99 117 54 171 108 126 135 90"/><polygon class="cls-30" points="108 126 54 171 99 189 108 126"/><polygon class="cls-31" points="198 63 135 90 108 126 198 63"/><polygon class="cls-16" points="558 207 612 45 414 216 558 207"/><polygon class="cls-32" points="243 27 225 36 189 54 135 90 198 63 243 27"/><polygon class="cls-3" points="279 27 243 27 198 63 279 27"/><polygon class="cls-10" points="334 17 332.63 17.25 333 18 334 17"/><path class="cls-33" d="M663.44,529H639.82a4.56,4.56,0,0,1-1.59-.29l-70-26.26a4.65,4.65,0,0,0-2.48-.2l-41.66,8.34a4.54,4.54,0,0,1-3.72-.91l-43-34.38a3.89,3.89,0,0,0-.8-.51l-17.28-8.65a5.36,5.36,0,0,0-.6-.24L408.1,449a4.52,4.52,0,0,1-3.1-4.29V406.93a4.53,4.53,0,0,1,3.89-4.49l56.87-8.12a4.52,4.52,0,0,1,3.84,1.28L489,415a4.53,4.53,0,0,0,7.64-2.32l7.07-35.36A4.59,4.59,0,0,1,505,375l52.22-52.22a4.63,4.63,0,0,1,1.9-1.14l84.77-25.43a4.52,4.52,0,0,0,3.09-5.43l-16.35-65.4a4.52,4.52,0,0,0-3-3.2l-49.86-16.62a4.52,4.52,0,0,0-3.46.25L524.59,230.7a4.53,4.53,0,0,1-4.85-.51L482.9,200.72a4.53,4.53,0,0,1,1-7.7l55.56-23.81a4.11,4.11,0,0,0,.93-.54l34.36-25.76a4.54,4.54,0,0,1,2.72-.91h77.31c1.38,0-16.68,7.93-15.82,9l48.8,29.5a4.53,4.53,0,0,0,7.83-1.39L718.32,111a4.53,4.53,0,0,0-3.55-5.9l-102-17a4.54,4.54,0,0,0-1.56,0l-41.83,7.61A4.51,4.51,0,0,0,567,97h0l-.37-.75-53.1,9.65a4.73,4.73,0,0,0-1,.32l-80.1,35.6a4.37,4.37,0,0,0-.76.43l-88,61.62a4.53,4.53,0,0,0-1.89,3.07l-8.65,60.57a5.09,5.09,0,0,1-.24.95l-26.14,69.69a4.56,4.56,0,0,0,.19,3.62l16.94,33.86a4.48,4.48,0,0,0,.42.7l26.62,35.48c.09.13.18.26.26.39l26.2,43.67a4.54,4.54,0,0,0,1.86,1.72l34.57,17.28a3.82,3.82,0,0,1,.48.29l13.1,8.73.35.21,48.81,26.62a4.25,4.25,0,0,0,1.07.42l30.9,7.72a4.53,4.53,0,0,1,3.25,5.64l-16,55.94a4.53,4.53,0,0,0,1.15,4.44l51.6,51.6a4.55,4.55,0,0,1,.85,1.18l17.46,34.93a4.25,4.25,0,0,1,.33.86L599.7,795.61a4.52,4.52,0,0,0,8.51.67l30.29-68.15a4.6,4.6,0,0,1,1.5-1.85l61.32-43.8a4.37,4.37,0,0,0,1.14-1.17l17.41-26.11.28-.39,40.77-48.91a4.53,4.53,0,0,0-1.89-7.14l-64.55-24.21a4.46,4.46,0,0,1-2.29-1.9L667.32,531.2A4.51,4.51,0,0,0,663.44,529Z" transform="translate(-234 -79)"/><polygon class="cls-17" points="693 225 702 288 756 261 774 234 675 99 648 180 693 225"/><polygon class="cls-17" points="657 666 660 663 657 664.88 657 666"/><polygon class="cls-17" points="783 297 666 306 630 405 720 468 657 639 657 664.88 660 663 738 585 783 450 783 297"/><path class="cls-21" d="M288,430l63-18-81-27Z" transform="translate(-234 -79)"/><polygon class="cls-3" points="261 504 243 432 207 414 193.5 405 144 378 72 585 126 495 180 405 261 504"/><polygon class="cls-34" points="243 432 193.5 405 207 414 243 432"/><polygon class="cls-10" points="693 225 558 207 540 396 693 225"/><polygon class="cls-35" points="783 297 774 234 756 261 783 297"/><polygon class="cls-3" points="340.94 61.02 249.94 114.02 474.94 60.02 340.94 61.02"/><polygon class="cls-10" points="450 171 396 153 414 216 450 171"/><polygon class="cls-11" points="281.43 442.39 239.95 421.29 260.1 504.84 281.43 442.39"/><polygon class="cls-11" points="95.72 290.95 34.32 305.69 118.71 332.59 95.72 290.95"/><polygon class="cls-36" points="90 300.72 76.64 256.82 36.26 306 90 300.72"/><polygon class="cls-10" points="441 171 396 153 456.75 108 441 171"/><path class="cls-10" d="M693,187" transform="translate(-234 -79)"/><polyline class="cls-10" points="477 27 486 27 486 36"/><polygon class="cls-10" points="459 99 468 99 450 126 459 99"/><polygon class="cls-10" points="252 333 261 342 270 333 252 333"/><polygon class="cls-9" points="531 531 522 513 531 513 531 531"/><polygon class="cls-16" points="243 117 342 126 288 153 243 117"/><polygon class="cls-10" points="414 72 342 126 243 117 414 72"/><polyline class="cls-18" points="468 108 405 117 342 126 414 72"/><line class="cls-11" x1="405" y1="117" x2="459" y2="108"/><path class="cls-11" d="M621,214" transform="translate(-234 -79)"/><path class="cls-11" d="M701,243" transform="translate(-234 -79)"/><polyline class="cls-11" points="396 153 342 126 477 108"/><path class="cls-18" d="M729,196" transform="translate(-234 -79)"/><polyline class="cls-14" points="369 729 360 711 378 711"/></svg>